<?xml version="1.0" encoding="UTF-8"?>
<!--Generator: Apple Native CoreSVG 341-->
<!DOCTYPE svg
PUBLIC "-//W3C//DTD SVG 1.1//EN"
       "http://www.w3.org/Graphics/SVG/1.1/DTD/svg11.dtd">
<svg version="1.1" xmlns="http://www.w3.org/2000/svg" xmlns:xlink="http://www.w3.org/1999/xlink" viewBox="0 0 380.566 415.723">
 <defs>
  <linearGradient id="gradient1" x1="5" x2="5" y2="413.599" gradientUnits="userSpaceOnUse">
   <stop offset="0" stop-color="#56d7df" stop-opacity="1"/>
   <stop offset="1" stop-color="#00c3d0" stop-opacity="1"/>
  </linearGradient>
 </defs>
 <g>
  <rect height="415.723" opacity="0" width="380.566" x="0" y="0"/>
  <path d="M174.902 409.204C185.596 415.063 194.971 415.063 205.664 409.204L255.908 380.64C263.818 376.099 265.723 368.188 262.061 361.45C258.398 354.712 249.902 352.954 242.285 357.202L203.76 379.028L203.76 337.427C203.76 328.638 198.047 322.192 190.283 322.192C182.52 322.192 176.807 328.638 176.807 337.427L176.807 379.028L138.281 357.202C130.811 352.954 122.168 354.712 118.506 361.45C114.844 368.188 116.748 376.099 124.658 380.64ZM51.8555 339.771C59.4727 344.019 68.1152 342.554 71.7773 335.522C75.4395 328.638 72.5098 320.435 65.4785 316.479L40.2832 302.417L72.3633 284.253C80.127 279.858 83.2031 271.216 78.9551 264.917C74.5605 258.179 66.6504 256.274 59.3262 260.376L26.3672 278.687L26.3672 249.683C26.3672 241.04 20.6543 234.595 13.1836 234.595C5.41992 234.595 0 241.04 0 249.683L0 281.323C0 306.812 7.91016 315.161 24.9023 324.829ZM13.1836 190.063C20.9473 190.063 26.3672 183.618 26.3672 174.976L26.3672 134.399L62.8418 155.054C69.873 159.009 78.0762 157.104 82.4707 150.513C86.7188 144.067 83.4961 135.425 75.5859 131.03L40.2832 111.255L76.6113 90.8936C84.9609 86.2061 87.4512 77.417 83.2031 70.8252C79.1016 64.5264 71.0449 62.915 64.1602 67.0166L21.0938 91.333C7.61719 99.0967 0 109.497 0 127.515L0 174.976C0 183.618 5.71289 190.063 13.1836 190.063ZM190.283 87.8174C198.047 87.8174 203.76 81.3721 203.76 72.7295L203.76 34.2041L234.229 51.3428C241.553 55.5908 250.488 53.833 254.004 47.2412C257.52 40.6494 255.762 32.5928 247.852 28.1982L208.008 5.49316C194.824-1.83105 185.742-1.83105 172.705 5.49316L132.715 28.1982C124.805 32.5928 123.047 40.6494 126.562 47.2412C130.078 53.833 139.014 55.5908 146.338 51.3428L176.807 34.2041L176.807 72.7295C176.807 81.3721 182.52 87.8174 190.283 87.8174ZM367.383 190.063C374.854 190.063 380.566 183.618 380.566 174.976L380.566 127.515C380.566 108.032 374.854 99.9756 359.619 91.333L316.406 67.0166C309.521 62.915 301.611 64.5264 297.363 70.8252C293.262 77.417 295.605 86.2061 303.955 90.8936L340.283 111.255L304.98 131.03C297.07 135.425 293.848 144.067 298.096 150.513C302.49 157.104 310.693 159.009 317.725 155.054L354.199 134.399L354.199 174.976C354.199 183.618 359.619 190.063 367.383 190.063ZM328.711 339.771L355.664 324.829C372.656 315.161 380.566 306.812 380.566 281.323L380.566 249.683C380.566 241.04 375.146 234.595 367.383 234.595C359.912 234.595 354.199 241.04 354.199 249.683L354.199 278.833L321.24 260.376C313.916 256.274 306.006 258.179 301.611 264.917C297.363 271.216 300.439 279.858 308.35 284.253L340.137 302.417L315.088 316.479C308.057 320.435 305.127 328.638 308.789 335.522C312.451 342.554 321.094 344.019 328.711 339.771ZM190.283 279.126C198.047 279.126 203.76 272.827 203.76 264.038L203.76 219.214L245.068 195.776C252.832 191.382 255.615 182.739 251.367 176.294C247.119 169.702 239.355 167.798 232.031 171.899L190.283 195.19L148.682 171.899C141.211 167.798 133.447 169.702 129.199 176.294C124.951 182.739 127.734 191.382 135.645 195.776L176.807 219.214L176.807 264.038C176.807 272.827 182.52 279.126 190.283 279.126Z" fill="url(#gradient1)"/>
 </g>
</svg>
