<?xml version="1.0" encoding="UTF-8"?>
<!--Generator: Apple Native CoreSVG 341-->
<!DOCTYPE svg
PUBLIC "-//W3C//DTD SVG 1.1//EN"
       "http://www.w3.org/Graphics/SVG/1.1/DTD/svg11.dtd">
<svg version="1.1" xmlns="http://www.w3.org/2000/svg" xmlns:xlink="http://www.w3.org/1999/xlink" viewBox="0 0 508.447 425.83">
 <defs>
  <linearGradient id="gradient1" x1="5" y1="0.585938" x2="5" y2="425.83" gradientUnits="userSpaceOnUse">
   <stop offset="0" stop-color="#56d7df" stop-opacity="1"/>
   <stop offset="1" stop-color="#00c3d0" stop-opacity="1"/>
  </linearGradient>
 </defs>
 <g>
  <rect height="425.83" opacity="0" width="508.447" x="0" y="0"/>
  <path d="M36.9141 425.244L73.5352 425.244C96.2402 425.244 111.182 409.131 111.182 390.967C111.182 380.859 106.787 369.141 94.6289 363.867C131.982 350.244 154.102 325.928 160.693 288.721C188.086 305.859 231.299 308.35 275.244 303.223C274.365 328.857 270.41 368.262 270.41 385.4C270.41 411.475 284.326 425.83 309.668 425.83L341.309 425.83C367.236 425.83 381.738 409.131 381.738 388.33C381.738 374.707 375.586 358.154 352.148 349.951C353.174 333.691 363.721 290.039 369.58 273.34C379.248 245.801 397.705 220.898 397.705 183.984C397.705 165.967 401.807 157.178 405.176 149.707C418.359 157.617 429.932 160.84 442.676 160.84C475.488 160.84 508.447 126.123 508.447 90.8203C508.447 71.7773 480.908 58.4473 465.381 48.7793C447.803 36.9141 435.059 21.2402 418.066 12.8906L412.354 35.3027C424.805 42.4805 435.352 56.1035 451.758 66.5039C468.896 77.7832 483.398 81.0059 483.398 93.75C483.398 112.793 463.184 135.645 442.676 135.645C431.689 135.645 422.607 132.422 407.08 121.729C400.781 117.334 394.482 118.359 390.674 124.072C377.051 144.141 372.656 159.961 372.656 183.984C372.656 211.67 356.689 232.178 345.264 266.455C339.111 285.205 326.807 335.156 326.807 355.664C326.807 360.791 328.857 365.039 334.717 367.09C353.32 371.338 356.543 380.859 356.543 387.012C356.543 395.361 350.977 400.049 341.309 400.049L310.693 400.049C300.732 400.049 295.752 394.629 295.752 384.375C295.752 348.633 302.49 299.854 302.49 282.568C302.49 275.098 295.898 271.143 287.988 273.633C238.037 290.039 185.01 279.932 154.688 256.348C147.51 250.635 138.867 254.883 138.867 262.939C138.867 312.305 114.697 336.328 62.1094 349.365C52.5879 351.855 52.5879 366.064 62.1094 367.676C77.4902 370.312 85.9863 377.051 85.9863 387.012C85.9863 395.068 79.6875 400.049 70.8984 400.049L39.6973 400.049C30.7617 400.049 25.0488 393.75 25.0488 384.375L25.0488 347.754C25.0488 332.373 30.7617 323.145 54.3457 304.395C73.9746 288.721 79.1016 268.799 79.1016 224.854C79.1016 200.977 82.0312 176.074 91.5527 162.305L65.918 132.861C57.1289 122.754 70.459 112.354 78.9551 122.314L103.564 151.172C107.227 148.535 112.061 146.924 118.066 146.631L279.492 133.154C344.971 110.303 342.188 80.2734 364.014 56.8359L349.072 36.7676C313.916 69.7266 320.801 91.1133 274.512 108.252L123.779 120.85C118.213 121.436 113.525 122.021 109.57 122.9L95.3613 105.762C69.2871 74.707 19.3359 112.061 48.0469 146.338L63.1348 164.209C57.1289 182.08 53.9062 201.855 53.9062 224.854C53.9062 264.844 50.9766 275.098 38.9648 284.766C11.2793 306.592 0 323.438 0 347.754L0 387.012C0 409.57 15.2344 425.244 36.9141 425.244ZM380.42 82.1777C409.424 82.1777 424.512 32.666 424.512 19.1895C424.512 7.03125 418.066 0.585938 405.908 0.585938L355.225 0.585938C342.92 0.585938 336.475 7.03125 336.475 19.1895C336.475 32.666 351.709 82.1777 380.42 82.1777ZM380.42 60.0586C369.727 60.0586 361.377 36.7676 359.766 26.2207C359.473 24.0234 360.791 22.7051 363.135 22.7051L398.145 22.7051C400.342 22.7051 401.66 24.0234 401.367 26.2207C399.756 36.7676 391.406 60.0586 380.42 60.0586ZM428.906 93.1641C436.084 93.1641 441.943 87.1582 441.943 79.834C441.943 72.5098 436.084 66.6504 428.906 66.6504C421.436 66.6504 415.576 72.5098 415.576 79.834C415.576 87.1582 421.436 93.1641 428.906 93.1641Z" fill="url(#gradient1)"/>
 </g>
</svg>
